# xmcd
#
# Track frame offsets: 
#        150
#        19172
#        31820
#        44727
#        64485
#        86282
#        103875
#        123552
#        137410
#        155415
#
# Disc length: 2330 seconds
#
# Revision: 2
# Processed by: cddbd v1.5.2PL0 Copyright (c) Steve Scherf et al.
# Submitted via: ExactAudioCopy v0.99pb4
#
DISCID=8509180a
DTITLE=Dick Siegel - Snap!
DYEAR=1980
DGENRE=Blues
TTITLE0=Downsize Blues
TTITLE1=Angelo's
TTITLE2=Razzle-Dazzle
TTITLE3=She's Available
TTITLE4=When the Sumac Is on Fire
TTITLE5=The Cave In
TTITLE6=What Would Brando Do?
TTITLE7=Chicago (Cast Off Alone)
TTITLE8=Carry Me Away
TTITLE9=Cure for Your Blues
EXTD=YEAR: 1980
EXTT0=
EXTT1=
EXTT2=
EXTT3=
EXTT4=
EXTT5=
EXTT6=
EXTT7=
EXTT8=
EXTT9=
PLAYORDER=
